<?xml version="1.0" encoding="UTF-8"?>
<svg xmlns="http://www.w3.org/2000/svg" xmlns:xlink="http://www.w3.org/1999/xlink" width="512" height="512" viewBox="0 0 512 512">
<defs>
<linearGradient id="linear-pattern-0" gradientUnits="userSpaceOnUse" x1="244.82254" y1="-272.523468" x2="1115.340454" y2="-272.523468" gradientTransform="matrix(0.211091, 0.484299, -0.484299, 0.211091, -17.512876, -15.569655)">
<stop offset="0" stop-color="rgb(0%, 45.098039%, 63.137255%)" stop-opacity="1"/>
<stop offset="1" stop-color="rgb(0%, 20.784314%, 33.333333%)" stop-opacity="1"/>
</linearGradient>
</defs>
<path fill-rule="nonzero" fill="rgb(100%, 100%, 100%)" fill-opacity="1" d="M 512 256 C 512 397.386719 397.386719 512 256 512 C 114.613281 512 0 397.386719 0 256 C 0 114.613281 114.613281 0 256 0 C 397.386719 0 512 114.613281 512 256 Z M 512 256 "/>
<path fill-rule="nonzero" fill="url(#linear-pattern-0)" d="M 262.019531 26.351562 C 229.0625 25.777344 196.367188 32.300781 166.148438 45.46875 C 49.730469 96.214844 -3.507812 231.726562 47.234375 348.144531 C 90.171875 445.980469 194.835938 501.351562 299.875 481.800781 C 304.351562 467.527344 308.019531 451.875 308.019531 434.808594 C 308.019531 432.382812 307.953125 429.957031 307.820312 427.464844 C 307.820312 427.464844 316.039062 413.453125 322.503906 395.195312 C 330.523438 372.625 326.277344 347.765625 312.398438 328.09375 C 311.59375 327.015625 310.785156 325.804688 309.90625 324.589844 C 228.1875 324.589844 187.765625 250.484375 177.523438 205.414062 C 173.28125 186.886719 169.835938 185.046875 158.269531 185.046875 C 136.867188 185.046875 121.417969 176.171875 121.417969 176.171875 C 101.769531 185.175781 92.96875 181.507812 95.605469 172.109375 C 87.050781 171.164062 87.230469 161.453125 92.4375 152.527344 C 98.96875 141.339844 112.3125 133.734375 128.277344 133.734375 L 136.832031 133.734375 C 154.484375 133.734375 158.121094 124.503906 176.3125 126.457031 C 179.144531 126.726562 181.769531 127.199219 184.195312 127.804688 C 189.25 122.011719 194.976562 119.585938 201.914062 120.054688 C 202.992188 120.191406 203.664062 121.136719 203.464844 122.144531 L 201.777344 129.960938 C 201.171875 132.855469 201.980469 135.890625 204.070312 137.84375 C 218.753906 151.585938 227.175781 175.03125 236.609375 196.183594 C 251.902344 227.375 288.820312 270.695312 348.039062 215.117188 C 389.675781 176.035156 414.832031 143.453125 456.183594 140.25 C 415.738281 71.035156 342.171875 27.878906 262.019531 26.351562 Z M 164.386719 139.484375 C 158.320312 139.484375 152.269531 144.351562 154.328125 145.222656 C 154.785156 145.417969 155.566406 145.550781 156.460938 145.648438 C 157.097656 149.527344 160.355469 152.527344 164.417969 152.527344 C 168.480469 152.527344 171.683594 149.527344 172.316406 145.648438 C 173.207031 145.550781 173.984375 145.417969 174.441406 145.222656 C 176.5 144.351562 170.449219 139.484375 164.386719 139.484375 Z M 379.191406 360.566406 C 374.273438 360.683594 369.859375 363.808594 368.386719 368.582031 L 368.386719 368.652344 C 361.042969 392.230469 346.757812 422.683594 346.757812 422.683594 C 346.757812 422.683594 332.550781 447.851562 324.507812 476.035156 C 333.144531 473.542969 341.625 470.546875 349.910156 467.0625 C 366.113281 459.972656 381.445312 451.035156 395.601562 440.429688 C 393.394531 436.035156 390.910156 431.554688 387.953125 426.925781 C 387.953125 426.925781 383.238281 405.972656 374.210938 383.136719 C 375.625 379.226562 376.90625 375.386719 378.050781 371.683594 L 378.117188 371.414062 C 378.386719 370.875 378.992188 370.671875 379.664062 370.671875 L 379.734375 370.671875 C 384.449219 371.414062 389.433594 372.152344 395.226562 372.828125 C 396.980469 372.960938 398.796875 373.097656 400.617188 373.300781 C 402.839844 373.5 404.996094 373.703125 407.21875 373.839844 C 407.753906 395.035156 416.953125 415.292969 419.277344 420.128906 C 436.242188 403.425781 450.511719 384.191406 461.570312 363.113281 C 445.195312 364.980469 425.167969 365.613281 401.597656 363.261719 C 399.710938 363.058594 397.824219 362.859375 395.941406 362.722656 C 390.753906 362.117188 385.902344 361.441406 381.320312 360.703125 C 380.605469 360.59375 379.890625 360.546875 379.191406 360.566406 Z M 379.191406 360.566406 "/>
</svg>
